<?xml version="1.0" encoding="utf-8"?>
<!-- Generator: Adobe Illustrator 28.2.0, SVG Export Plug-In . SVG Version: 6.00 Build 0)  -->
<svg version="1.1" id="Layer_1" xmlns="http://www.w3.org/2000/svg" xmlns:xlink="http://www.w3.org/1999/xlink" x="0px" y="0px"
	 viewBox="0 0 1920 1080" style="enable-background:new 0 0 1920 1080;" xml:space="preserve">
<style type="text/css">
	.st0{fill:#E5FB51;}
</style>
<path class="st0" d="M960.23,397.17c-2.72,0-5.15,1.69-6.09,4.24l-76.4,144.85c-1.3,2.07-2,4.46-2.01,6.91c0,7.18,5.82,13,13,13h65
	v110.5c0,3.59,2.91,6.5,6.5,6.5c2.44,0,4.67-1.36,5.79-3.53l76.96-145.95l-0.03-0.03c1.15-1.97,1.77-4.21,1.78-6.5
	c0-7.18-5.82-13-13-13h-65v-110.5C966.73,400.08,963.82,397.17,960.23,397.17z"/>
</svg>
